# xmcd
#
# Track frame offsets:
#	150
#	21441
#	44682
#	71295
#	93296
#	117067
#	137800
#	162295
#	182457
#	202187
#
# Disc length: 3015 seconds
#
# Revision: 1
# Processed by: cddbd v1.5.2PL0 Copyright (c) Steve Scherf et al.
# Submitted via: EZCDAudioConverter 8.0.2.1
#
DISCID=880bc50a
DTITLE=Phi Nhung, Trường Vũ, Hồng Trúc - Năm Cụm Núi Quê Hương
DYEAR=1998
DGENRE=country
TTITLE0=Trường Vũ - Gõ cửa
TTITLE1=Hồng Trúc - Năm Cụm Núi Quê Hương
TTITLE2=Phi Nhung - Mấy nhịp cầu tre
TTITLE3=Hồng Trúc - Có lẽ
TTITLE4=Trường Vũ - Tiễn biệt
TTITLE5=Hạ Vy - Ầu ơ ví dầu
TTITLE6=Hồng Trúc - Hai kỷ niệm một chuyến đi
TTITLE7=Trường Vũ - Bóng mát
TTITLE8=Hồng Trúc - Quên nhau trên đường về
TTITLE9=Phi Nhung - Đừng trách diêu bông
EXTD=
EXTT0=
EXTT1=
EXTT2=
EXTT3=
EXTT4=
EXTT5=
EXTT6=
EXTT7=
EXTT8=
EXTT9=
PLAYORDER=
